<svg width="24" height="24" viewBox="0 0 24 24" fill="none" xmlns="http://www.w3.org/2000/svg">
<path fill-rule="evenodd" clip-rule="evenodd" d="M4.40039 11.9998C4.40039 11.4751 4.82572 11.0498 5.35039 11.0498H18.6504C19.1751 11.0498 19.6004 11.4751 19.6004 11.9998C19.6004 12.5245 19.1751 12.9498 18.6504 12.9498H5.35039C4.82572 12.9498 4.40039 12.5245 4.40039 11.9998Z" fill="#E0E4EB"/>
<path fill-rule="evenodd" clip-rule="evenodd" d="M11.3271 4.67766C11.6981 4.30666 12.2996 4.30666 12.6706 4.67766L19.3206 11.3277C19.6916 11.6987 19.6916 12.3002 19.3206 12.6712L12.6706 19.3212C12.2996 19.6922 11.6981 19.6922 11.3271 19.3212C10.9561 18.9502 10.9561 18.3487 11.3271 17.9777L17.3053 11.9994L11.3271 6.02117C10.9561 5.65017 10.9561 5.04866 11.3271 4.67766Z" fill="#E0E4EB"/>
</svg>
