<svg width="24" height="24" viewBox="0 0 24 24" fill="none" xmlns="http://www.w3.org/2000/svg">
<path fill-rule="evenodd" clip-rule="evenodd" d="M16.3169 5.3797C15.0075 5.11925 13.6503 5.25293 12.4169 5.76382C11.1835 6.27471 10.1293 7.13987 9.38758 8.2499C8.64588 9.35994 8.25 10.665 8.25 12C8.25 12.4142 7.91421 12.75 7.5 12.75C7.08579 12.75 6.75 12.4142 6.75 12C6.75 11.2386 6.85536 10.4852 7.05986 9.76023C6.95688 9.75338 6.85363 9.74997 6.75028 9.75H6.75C5.55653 9.75 4.41193 10.2241 3.56802 11.068C2.72411 11.9119 2.25 13.0565 2.25 14.25C2.25 15.4435 2.72411 16.5881 3.56802 17.432C4.41193 18.2759 5.55653 18.75 6.75 18.75H15C16.335 18.75 17.6401 18.3541 18.7501 17.6124C19.8601 16.8707 20.7253 15.8165 21.2362 14.5831C21.7471 13.3497 21.8808 11.9925 21.6203 10.6831C21.3599 9.37377 20.717 8.17104 19.773 7.22703C18.829 6.28303 17.6262 5.64015 16.3169 5.3797ZM7.62036 8.31171C7.77422 8.00385 7.94776 7.70482 8.14038 7.41655C9.0469 6.05984 10.3354 5.00242 11.8429 4.378C13.3504 3.75357 15.0092 3.5902 16.6095 3.90853C18.2098 4.22685 19.6798 5.01259 20.8336 6.16637C21.9874 7.32016 22.7732 8.79017 23.0915 10.3905C23.4098 11.9909 23.2464 13.6497 22.622 15.1571C21.9976 16.6646 20.9402 17.9531 19.5835 18.8596C18.2267 19.7661 16.6317 20.25 15 20.25H6.75C5.1587 20.25 3.63258 19.6179 2.50736 18.4926C1.38214 17.3674 0.75 15.8413 0.75 14.25C0.75 12.6587 1.38214 11.1326 2.50736 10.0074C3.63251 8.88221 5.15852 8.25008 6.74972 8.25M7.62036 8.31171C7.33233 8.27057 7.04148 8.24991 6.75 8.25L7.62036 8.31171Z" fill="#D2232A"/>
<path fill-rule="evenodd" clip-rule="evenodd" d="M18.5303 10.3447C18.8232 10.6376 18.8232 11.1124 18.5303 11.4053L14.0303 15.9053C13.7374 16.1982 13.2626 16.1982 12.9697 15.9053L10.7197 13.6553C10.4268 13.3624 10.4268 12.8876 10.7197 12.5947C11.0126 12.3018 11.4874 12.3018 11.7803 12.5947L13.5 14.3143L17.4697 10.3447C17.7626 10.0518 18.2374 10.0518 18.5303 10.3447Z" fill="#D2232A"/>
</svg>
