<svg width="24" height="130" viewBox="0 0 24 130" fill="none" xmlns="http://www.w3.org/2000/svg">
<path d="M3.00001 124.333C4.47276 124.333 5.66667 125.527 5.66667 127C5.66667 128.473 4.47276 129.667 3.00001 129.667C1.52725 129.667 0.333339 128.473 0.333339 127C0.333339 125.527 1.52725 124.333 3.00001 124.333ZM3 3L2.5 3L2.5 2.5L3 2.5L3 3ZM21 0.333332C22.4728 0.333332 23.6667 1.52724 23.6667 3C23.6667 4.47276 22.4728 5.66667 21 5.66667C19.5272 5.66667 18.3333 4.47276 18.3333 3C18.3333 1.52724 19.5272 0.333333 21 0.333332ZM2.50001 127L2.5 3L3.5 3L3.50001 127L2.50001 127ZM3 2.5L21 2.5L21 3.5L3 3.5L3 2.5Z" fill="#D2232A"/>
</svg>
