<svg width="51" height="357" viewBox="0 0 51 357" fill="none" xmlns="http://www.w3.org/2000/svg">
<path d="M3.00002 351.333C4.47277 351.333 5.66668 352.527 5.66668 354C5.66668 355.473 4.47277 356.667 3.00002 356.667C1.52726 356.667 0.333349 355.473 0.333349 354C0.333349 352.527 1.52726 351.333 3.00002 351.333ZM3 3L2.5 3L2.5 2.5L3 2.5L3 3ZM48 0.333331C49.4727 0.333331 50.6667 1.52724 50.6667 3C50.6667 4.47276 49.4727 5.66666 48 5.66666C46.5272 5.66666 45.3333 4.47276 45.3333 3C45.3333 1.52724 46.5272 0.333331 48 0.333331ZM2.50002 354L2.5 3L3.5 3L3.50002 354L2.50002 354ZM3 2.5L48 2.5L48 3.5L3 3.5L3 2.5Z" fill="#D2232A"/>
</svg>
