<svg width="135" height="15" viewBox="0 0 135 15" fill="none" xmlns="http://www.w3.org/2000/svg">
<path d="M3 0.333328C1.52724 0.333328 0.333328 1.52723 0.333328 2.99999C0.333328 4.47275 1.52724 5.66666 3 5.66666C4.47276 5.66666 5.66666 4.47275 5.66666 2.99999C5.66666 1.52724 4.47276 0.333328 3 0.333328ZM132 3L132.5 3L132.5 2.5L132 2.5L132 3ZM132 9.33334C130.527 9.33334 129.333 10.5272 129.333 12C129.333 13.4728 130.527 14.6667 132 14.6667C133.473 14.6667 134.667 13.4728 134.667 12C134.667 10.5272 133.473 9.33334 132 9.33334ZM3 3.49999L132 3.5L132 2.5L3 2.49999L3 3.49999ZM131.5 3L131.5 12L132.5 12L132.5 3L131.5 3Z" fill="#D2232A"/>
</svg>
