<svg width="24" height="24" viewBox="0 0 24 24" fill="none" xmlns="http://www.w3.org/2000/svg">
<path fill-rule="evenodd" clip-rule="evenodd" d="M3.04602 6.04589C3.04602 6.04605 3.04602 6.04623 3.04602 6.04645V17.9527C3.04602 17.9529 3.04602 17.9531 3.04602 17.9532C3.04613 17.9534 3.04626 17.9535 3.04643 17.9537C3.04659 17.9539 3.04674 17.954 3.04687 17.9541C3.04703 17.9541 3.04721 17.9541 3.04742 17.9541H20.9537C20.9539 17.9541 20.9541 17.9541 20.9542 17.9541C20.9544 17.954 20.9545 17.9539 20.9547 17.9537C20.9548 17.9535 20.955 17.9534 20.9551 17.9532C20.9551 17.9531 20.9551 17.9529 20.9551 17.9527V6.04645C20.9551 6.04623 20.9551 6.04605 20.9551 6.04589C20.955 6.04577 20.9548 6.04562 20.9547 6.04545C20.9545 6.04528 20.9544 6.04515 20.9542 6.04505C20.9541 6.04504 20.9539 6.04504 20.9537 6.04504H3.04742C3.04721 6.04504 3.04703 6.04504 3.04687 6.04505C3.04674 6.04515 3.04659 6.04528 3.04643 6.04545C3.04626 6.04562 3.04613 6.04577 3.04602 6.04589ZM1.45508 6.04645C1.45508 5.16702 2.16799 4.4541 3.04742 4.4541H20.9537C21.8331 4.4541 22.546 5.16702 22.546 6.04645V17.9527C22.546 18.8321 21.8331 19.545 20.9537 19.545H3.04742C2.16799 19.545 1.45508 18.8321 1.45508 17.9527V6.04645Z" fill="#D2232A"/>
<path fill-rule="evenodd" clip-rule="evenodd" d="M4.5 12C4.5 11.5858 4.83579 11.25 5.25 11.25H18.75C19.1642 11.25 19.5 11.5858 19.5 12C19.5 12.4142 19.1642 12.75 18.75 12.75H5.25C4.83579 12.75 4.5 12.4142 4.5 12Z" fill="#D2232A"/>
<path fill-rule="evenodd" clip-rule="evenodd" d="M4.5 9C4.5 8.58579 4.83579 8.25 5.25 8.25H18.75C19.1642 8.25 19.5 8.58579 19.5 9C19.5 9.41421 19.1642 9.75 18.75 9.75H5.25C4.83579 9.75 4.5 9.41421 4.5 9Z" fill="#D2232A"/>
<path fill-rule="evenodd" clip-rule="evenodd" d="M4.5 15C4.5 14.5858 4.83579 14.25 5.25 14.25H6C6.41421 14.25 6.75 14.5858 6.75 15C6.75 15.4142 6.41421 15.75 6 15.75H5.25C4.83579 15.75 4.5 15.4142 4.5 15Z" fill="#D2232A"/>
<path fill-rule="evenodd" clip-rule="evenodd" d="M8.25 15C8.25 14.5858 8.58579 14.25 9 14.25H15C15.4142 14.25 15.75 14.5858 15.75 15C15.75 15.4142 15.4142 15.75 15 15.75H9C8.58579 15.75 8.25 15.4142 8.25 15Z" fill="#D2232A"/>
<path fill-rule="evenodd" clip-rule="evenodd" d="M17.25 15C17.25 14.5858 17.5858 14.25 18 14.25H18.75C19.1642 14.25 19.5 14.5858 19.5 15C19.5 15.4142 19.1642 15.75 18.75 15.75H18C17.5858 15.75 17.25 15.4142 17.25 15Z" fill="#D2232A"/>
</svg>
