<svg width="203" height="40" viewBox="0 0 203 40" fill="none" xmlns="http://www.w3.org/2000/svg">
<path fill-rule="evenodd" clip-rule="evenodd" d="M0.879387 22.0393L4.57875 22.0533C4.78583 22.0582 4.98848 21.9894 5.15414 21.858C5.3198 21.7265 5.43886 21.54 5.49221 21.3284L6.16377 18.5497L8.82872 7.58469C8.90469 7.20791 9.02433 6.84249 9.18495 6.49668C9.3992 6.10672 9.79546 6.09119 10.2317 6.09941C10.668 6.10763 16.6718 6.0845 16.6718 6.0845C16.7917 6.08703 16.9097 6.11623 17.0183 6.1702C17.1268 6.22417 17.2233 6.30171 17.3016 6.39775C17.4916 6.67849 17.6243 6.99787 17.6915 7.33567C17.7315 7.51254 18.6724 11.2725 18.6724 11.2725L9.39949 11.2652C9.18336 11.2645 8.97422 11.3461 8.81031 11.495C8.64639 11.6439 8.53864 11.8502 8.50676 12.0761C8.33196 12.9212 7.7105 15.6291 7.7105 15.6291C7.68651 15.7739 7.69386 15.9227 7.73201 16.0641C7.77016 16.2056 7.83811 16.336 7.93077 16.4458C8.02342 16.5555 8.13838 16.6416 8.26701 16.6976C8.39564 16.7537 8.53461 16.7782 8.6735 16.7694C8.89495 16.7761 20.002 16.7594 20.002 16.7594L21.0629 21.0666L21.1308 21.3491C21.1896 21.5487 21.3065 21.7235 21.465 21.8485C21.6234 21.9735 21.8152 22.0423 22.0129 22.0451C22.7112 22.0524 25.8298 22.0323 25.8298 22.0323C25.9559 22.0163 26.0774 21.9724 26.1863 21.9032C26.2952 21.8341 26.3891 21.7414 26.4617 21.6313C26.5343 21.5211 26.584 21.3959 26.6076 21.264C26.6313 21.1321 26.6282 20.9963 26.5987 20.8657L25.6935 17.1502L23.1976 6.86717C23.1976 6.86717 22.4987 3.96724 21.1832 2.51758C19.8678 1.06792 18.1215 0.726358 16.9128 0.69896C15.7042 0.671562 9.15125 0.727271 9.15125 0.727271C9.15125 0.727271 6.89524 0.812509 5.58033 2.46248C4.26543 4.11245 4.02266 4.67837 3.32374 7.15058C2.62482 9.6228 0.0485734 20.7954 0.0485734 20.7954C0.00114472 20.9381 -0.0118185 21.0911 0.0108625 21.2404C0.0335435 21.3897 0.0911494 21.5307 0.17845 21.6505C0.263222 21.7637 0.369518 21.8567 0.490459 21.9237C0.611401 21.9906 0.744293 22.03 0.88054 22.0393H0.879387ZM27.7638 15.4333C27.7638 15.4333 27.6696 16.8857 28.0054 17.753C28.3412 18.6203 28.7306 19.5725 29.6167 20.3102C30.5028 21.0478 31.2817 21.9878 34.639 21.9878C37.9962 21.9878 45.8926 22.0161 45.8926 22.0161C47.5003 22.025 49.0481 21.372 50.2082 20.1954C52.0884 18.234 51.8379 15.4324 51.8379 15.4324V1.61679C51.8372 1.34582 51.735 1.08615 51.5538 0.894537C51.3725 0.702927 51.1269 0.594961 50.8705 0.594238H47.5401C47.2838 0.595042 47.0383 0.703053 46.8571 0.894662C46.676 1.08627 46.574 1.3459 46.5733 1.61679V16.0275C46.5428 16.2434 46.3864 16.5788 45.7039 16.5883C44.696 16.6023 33.7794 16.5883 33.7794 16.5883C33.6325 16.5935 33.4868 16.5597 33.3554 16.49C33.2241 16.4204 33.1113 16.317 33.0275 16.1895V1.61679C33.0269 1.3459 32.9248 1.08627 32.7437 0.894662C32.5625 0.703053 32.317 0.595042 32.0607 0.594238H28.7311C28.4749 0.595042 28.2293 0.703053 28.0482 0.894662C27.867 1.08627 27.765 1.3459 27.7644 1.61679V15.4345L27.7638 15.4333ZM54.6399 0.680999H75.9566C76.2008 0.680346 76.4353 0.781887 76.609 0.963441C76.7826 1.145 76.8812 1.39181 76.8833 1.64997V5.11065C76.8811 5.36868 76.7824 5.61531 76.6087 5.79668C76.4351 5.97806 76.2007 6.07945 75.9566 6.07871H67.8866V20.9494C67.8873 21.2185 67.7872 21.477 67.6082 21.6684C67.4292 21.8597 67.1859 21.9684 66.9313 21.9708H63.5162C63.2617 21.9684 63.0183 21.8597 62.8393 21.6684C62.6604 21.477 62.5603 21.2185 62.561 20.9494V6.07871H54.6396C54.3955 6.07929 54.1612 5.97785 53.9876 5.7965C53.814 5.61516 53.7152 5.36863 53.7129 5.11065V1.65119C53.715 1.39305 53.8137 1.14629 53.9873 0.964748C54.1609 0.78321 54.3954 0.681644 54.6396 0.682217L54.6399 0.680999ZM84.7623 0.674302H100.863C100.983 0.669054 101.104 0.689647 101.217 0.734844C101.33 0.780041 101.433 0.848911 101.521 0.937324C101.608 1.02574 101.677 1.13187 101.725 1.24936C101.772 1.36685 101.797 1.49328 101.797 1.62106V5.15235C101.797 5.15235 101.77 6.08297 100.716 6.08297C99.6623 6.08297 84.6327 6.06897 84.6327 6.06897C84.6327 6.06897 83.7607 6.11129 83.7475 6.82211C83.7342 7.53294 83.7334 8.59994 83.7334 8.59994H100.627C100.627 8.59994 101.782 8.54271 101.782 9.53725C101.782 10.5318 101.79 13.211 101.79 13.211C101.79 13.211 101.762 14.1155 100.762 14.1155C99.7625 14.1155 83.7602 14.1295 83.7602 14.1295L83.7469 15.8211C83.7469 15.8211 83.5854 16.6023 84.6204 16.5883C85.6553 16.5743 100.734 16.5883 100.734 16.5883C100.734 16.5883 101.835 16.5037 101.808 17.6687C101.781 18.8337 101.781 21.0782 101.781 21.0782C101.781 21.0782 101.795 22.0021 100.734 22.0021C99.6735 22.0021 84.4314 22.0171 84.4314 22.0171C84.4314 22.0171 78.4959 21.7607 78.4703 15.7344C78.4447 9.70804 78.4965 6.15451 78.4965 6.15451C78.8533 3.06554 81.8777 0.587236 84.7629 0.67491L84.7623 0.674302ZM103.342 1.62775C103.343 1.49329 103.37 1.36043 103.422 1.23765C103.474 1.11486 103.549 1.00485 103.644 0.914629C103.738 0.824406 103.849 0.75595 103.97 0.713628C104.09 0.671306 104.218 0.656046 104.345 0.668821C105.355 0.668821 107.772 0.679476 107.772 0.679476C107.885 0.678001 107.998 0.700557 108.103 0.745812C108.208 0.791067 108.303 0.858105 108.383 0.942972C108.464 1.02784 108.527 1.12881 108.569 1.23994C108.612 1.35107 108.633 1.4701 108.632 1.59C108.664 2.51119 108.667 15.7386 108.667 15.7386C108.667 15.7386 108.387 16.6254 109.633 16.5804C110.879 16.5353 123.277 16.5804 123.277 16.5804C123.277 16.5804 124.137 16.5341 124.179 17.6251C124.221 18.7162 124.179 21.0603 124.179 21.0603C124.17 21.1942 124.137 21.3251 124.081 21.4455C124.025 21.5659 123.947 21.6734 123.851 21.7619C123.756 21.8503 123.645 21.9179 123.524 21.9609C123.404 22.0038 123.277 22.0213 123.15 22.0122C122.157 22.0289 109.399 21.9921 109.399 21.9921C109.399 21.9921 107.378 22.0164 105.851 20.8128C104.325 19.6091 103.338 18.1743 103.359 15.8318C103.38 13.4893 103.342 1.63019 103.342 1.63019V1.62775Z" fill="white"/>
<path d="M149.47 22.2478C147.3 22.2478 145.337 21.7724 143.58 20.8218C141.844 19.8504 140.48 18.5278 139.488 16.8538C138.496 15.1591 138 13.2578 138 11.1498C138 9.04176 138.496 7.15076 139.488 5.47676C140.48 3.78209 141.854 2.45942 143.611 1.50876C145.368 0.537424 147.331 0.0517578 149.501 0.0517578C151.196 0.0517578 152.746 0.341091 154.151 0.919758C155.556 1.47776 156.755 2.31476 157.747 3.43076L155.732 5.38376C154.099 3.66842 152.064 2.81076 149.625 2.81076C148.013 2.81076 146.556 3.17242 145.254 3.89576C143.952 4.61909 142.929 5.62142 142.185 6.90276C141.462 8.16342 141.1 9.57909 141.1 11.1498C141.1 12.7204 141.462 14.1464 142.185 15.4278C142.929 16.6884 143.952 17.6804 145.254 18.4038C146.556 19.1271 148.013 19.4888 149.625 19.4888C152.043 19.4888 154.079 18.6208 155.732 16.8848L157.747 18.8378C156.755 19.9538 155.546 20.8011 154.12 21.3798C152.715 21.9584 151.165 22.2478 149.47 22.2478Z" fill="white"/>
<path d="M180.68 0.299756V21.9998H177.58V12.3278H165.118V21.9998H162.018V0.299756H165.118V9.63076H177.58V0.299756H180.68Z" fill="white"/>
<path d="M201.646 2.99676H190.486L190.517 21.9998H187.448V0.299756H201.677L201.646 2.99676Z" fill="white"/>
<g clip-path="url(#clip0_1_314)">
<path d="M82.69 33.7203C82.9451 34.0709 83.0754 34.4969 83.06 34.9303C83.0728 35.2351 83.008 35.5382 82.8716 35.8111C82.7351 36.0839 82.5316 36.3177 82.28 36.4903C81.5862 36.8794 80.7935 37.0567 80 37.0003H76V29.3303H79.76C80.5186 29.2816 81.2735 29.4703 81.92 29.8703C82.1599 30.0294 82.3555 30.2468 82.4885 30.5022C82.6214 30.7575 82.6873 31.0425 82.68 31.3303C82.6894 31.6789 82.6007 32.0231 82.4239 32.3237C82.2471 32.6243 81.9893 32.8691 81.68 33.0303C82.0782 33.1538 82.4301 33.3942 82.69 33.7203V33.7203ZM77.77 30.7203V32.4903H79.54C79.8886 32.5122 80.236 32.4323 80.54 32.2603C80.6522 32.1852 80.7427 32.0819 80.8023 31.9608C80.862 31.8397 80.8888 31.705 80.88 31.5703C80.8883 31.4384 80.8611 31.3067 80.8014 31.1889C80.7416 31.0711 80.6513 30.9714 80.54 30.9003C80.236 30.7282 79.8886 30.6483 79.54 30.6703L77.77 30.7203ZM80.91 35.4603C81.0283 35.3828 81.1239 35.2753 81.1872 35.1488C81.2504 35.0224 81.279 34.8814 81.27 34.7403C81.27 34.1003 80.8 33.7403 79.85 33.7403H77.77V35.6403H79.85C80.2131 35.6781 80.5797 35.6159 80.91 35.4603Z" fill="white"/>
<path d="M89.7596 37.0003L88.2796 34.8903H86.6396V37.0003H84.8496V29.3303H88.1896C88.8107 29.3083 89.4289 29.4244 89.9996 29.6703C90.4791 29.871 90.8861 30.2129 91.1666 30.6505C91.447 31.0881 91.5876 31.6008 91.5696 32.1203C91.5832 32.6434 91.4405 33.1587 91.1596 33.6003C90.874 34.0393 90.4678 34.3865 89.9896 34.6003L91.6696 37.0003H89.7596ZM89.3096 31.1003C88.9554 30.8465 88.5245 30.7228 88.0896 30.7503H86.6396V33.4703H88.0896C88.5262 33.5 88.9591 33.3723 89.3096 33.1103C89.4526 32.9878 89.565 32.8336 89.6379 32.66C89.7108 32.4864 89.7422 32.2981 89.7296 32.1103C89.7391 31.9257 89.7062 31.7414 89.6334 31.5715C89.5606 31.4016 89.4498 31.2507 89.3096 31.1303V31.1003Z" fill="white"/>
<path d="M98.45 35.3801H94.88L94.19 37.0001H92.37L95.8 29.3301H97.56L101 37.0001H99.13L98.45 35.3801ZM97.89 34.0001L96.67 31.0801L95.45 34.0001H97.89Z" fill="white"/>
<path d="M102.25 29.3301H104V37.0001H102.25V29.3301Z" fill="white"/>
<path d="M113.36 29.3301V37.0001H111.89L108.05 32.3601V37.0001H106.29V29.3301H107.77L111.6 34.0001V29.3301H113.36Z" fill="white"/>
<path d="M116.39 36.9201C115.89 36.7935 115.418 36.5729 115 36.2701L115.6 34.9301C115.958 35.1881 116.357 35.3842 116.78 35.5101C117.219 35.656 117.678 35.7303 118.14 35.7301C118.526 35.758 118.913 35.682 119.26 35.5101C119.371 35.4543 119.465 35.3686 119.53 35.2626C119.596 35.1567 119.63 35.0346 119.63 34.9101C119.633 34.8213 119.615 34.7331 119.577 34.653C119.538 34.5729 119.481 34.5033 119.41 34.4501C119.249 34.316 119.062 34.2172 118.86 34.1601C118.564 34.0646 118.264 33.9845 117.96 33.9201C117.469 33.8085 116.985 33.6683 116.51 33.5001C116.124 33.3669 115.78 33.1361 115.51 32.8301C115.229 32.4838 115.086 32.0455 115.11 31.6001C115.105 31.1665 115.23 30.7414 115.47 30.3801C115.747 29.9943 116.129 29.6959 116.57 29.5201C117.156 29.2797 117.787 29.1705 118.42 29.2001C118.905 29.2011 119.388 29.2582 119.86 29.3701C120.294 29.475 120.709 29.6471 121.09 29.8801L120.54 31.2301C119.891 30.8464 119.154 30.6395 118.4 30.6301C118.018 30.6031 117.636 30.6864 117.3 30.8701C117.189 30.9354 117.097 31.0291 117.034 31.1415C116.97 31.2539 116.938 31.3811 116.94 31.5101C116.941 31.6381 116.981 31.7628 117.054 31.868C117.127 31.9732 117.23 32.054 117.35 32.1001C117.757 32.266 118.179 32.3932 118.61 32.4801C119.098 32.5873 119.579 32.7242 120.05 32.8901C120.434 33.022 120.778 33.249 121.05 33.5501C121.328 33.8981 121.47 34.3352 121.45 34.7801C121.449 35.2188 121.309 35.6461 121.05 36.0001C120.771 36.3885 120.386 36.6873 119.94 36.8601C119.373 37.0919 118.763 37.201 118.15 37.1801C117.554 37.1759 116.962 37.0884 116.39 36.9201V36.9201Z" fill="white"/>
<path d="M124.56 30.7801H122.1V29.3301H128.81V30.7801H126.35V37.0001H124.56V30.7801Z" fill="white"/>
<path d="M131.66 36.6501C131.043 36.3083 130.53 35.8046 130.178 35.1931C129.825 34.5817 129.646 33.8857 129.66 33.1801C129.656 32.4756 129.846 31.7835 130.21 31.1801C130.552 30.5687 131.053 30.0609 131.66 29.7101C132.331 29.3648 133.076 29.1896 133.83 29.2001C134.585 29.185 135.331 29.3604 136 29.7101C136.621 30.0453 137.142 30.5387 137.51 31.1401C137.874 31.7435 138.064 32.4356 138.06 33.1401C138.066 33.8449 137.875 34.5374 137.51 35.1401C137.156 35.7735 136.633 36.2962 136 36.6501C135.337 36.9966 134.598 37.1719 133.85 37.1601C133.089 37.1739 132.337 36.9987 131.66 36.6501V36.6501ZM135.06 35.3301C135.421 35.1251 135.719 34.824 135.92 34.4601C136.132 34.0675 136.239 33.6264 136.23 33.1801C136.239 32.7338 136.132 32.2928 135.92 31.9001C135.724 31.5252 135.426 31.2133 135.06 31.0001C134.68 30.797 134.256 30.6908 133.825 30.6908C133.394 30.6908 132.97 30.797 132.59 31.0001C132.231 31.208 131.934 31.5084 131.73 31.8701C131.518 32.2628 131.411 32.7038 131.42 33.1501C131.411 33.5964 131.518 34.0375 131.73 34.4301C131.934 34.7918 132.231 35.0923 132.59 35.3001C132.97 35.5032 133.394 35.6095 133.825 35.6095C134.256 35.6095 134.68 35.5032 135.06 35.3001V35.3301Z" fill="white"/>
<path d="M144.73 37.0002L143.24 34.8902H141.6V37.0002H139.82V29.3302H143.15C143.761 29.3133 144.369 29.4293 144.93 29.6702C145.407 29.8821 145.81 30.23 146.09 30.6702C146.369 31.1128 146.512 31.6274 146.5 32.1502C146.514 32.6734 146.371 33.1887 146.09 33.6302C145.803 34.0719 145.393 34.4196 144.91 34.6302L146.64 37.0002H144.73ZM144.28 31.1002C143.926 30.8464 143.495 30.7228 143.06 30.7502H141.6V33.4702H143.06C143.497 33.5 143.93 33.3722 144.28 33.1102C144.42 32.9858 144.53 32.831 144.601 32.6577C144.672 32.4844 144.703 32.2971 144.69 32.1102C144.7 31.9266 144.668 31.7433 144.597 31.5737C144.526 31.4041 144.418 31.2526 144.28 31.1302V31.1002Z" fill="white"/>
<path d="M155.35 37.0001V32.4101L153.08 36.2201H152.27L150 32.5101V37.0001H148.35V29.3301H149.82L152.7 34.1201L155.54 29.3301H157V37.0001H155.35Z" fill="white"/>
<path d="M167.15 31.6201C167.568 31.8559 167.914 32.2018 168.15 32.6201C168.403 33.0822 168.531 33.603 168.52 34.1301C168.531 34.6572 168.403 35.1781 168.15 35.6401C167.915 36.0598 167.569 36.406 167.15 36.6401C166.701 36.8821 166.199 37.006 165.69 37.0001C165.21 37.0092 164.736 36.8883 164.32 36.6501C163.897 36.42 163.55 36.0728 163.32 35.6501V39.0901H162.77V31.2901H163.3V32.6401C163.533 32.2202 163.88 31.8738 164.3 31.6401C164.722 31.3957 165.202 31.268 165.69 31.2701C166.199 31.2561 166.702 31.3769 167.15 31.6201V31.6201ZM166.85 36.2701C167.202 36.0677 167.49 35.7695 167.68 35.4101C167.892 35.028 168.002 34.5974 168 34.1601C168.008 33.7246 167.905 33.2942 167.7 32.9101C167.51 32.5508 167.222 32.2526 166.87 32.0501C166.509 31.8393 166.097 31.732 165.68 31.7401C165.265 31.7323 164.857 31.8396 164.5 32.0501C164.147 32.2526 163.859 32.5508 163.67 32.9101C163.464 33.2942 163.361 33.7246 163.37 34.1601C163.361 34.5956 163.464 35.0261 163.67 35.4101C163.859 35.7695 164.147 36.0677 164.5 36.2701C164.857 36.4807 165.265 36.588 165.68 36.5801C166.09 36.5846 166.495 36.4775 166.85 36.2701V36.2701Z" fill="white"/>
<path d="M172 31.58C172.414 31.3462 172.884 31.2287 173.36 31.24V31.78H173.23C172.952 31.7637 172.675 31.8091 172.417 31.9129C172.16 32.0166 171.928 32.1761 171.74 32.38C171.379 32.8402 171.197 33.416 171.23 34V37H170.68V31.29H171.2V32.54C171.357 32.1428 171.637 31.8063 172 31.58V31.58Z" fill="white"/>
<path d="M176.069 36.7002C175.655 36.4587 175.311 36.1142 175.069 35.7002C174.817 35.2411 174.689 34.724 174.699 34.2002C174.661 33.6694 174.764 33.1379 174.999 32.6602C175.238 32.2443 175.583 31.8992 175.999 31.6602C176.448 31.4079 176.954 31.2754 177.469 31.2754C177.984 31.2754 178.49 31.4079 178.939 31.6602C179.355 31.8992 179.7 32.2443 179.939 32.6602C180.191 33.1193 180.319 33.6365 180.309 34.1602C180.319 34.684 180.191 35.2011 179.939 35.6602C179.698 36.0742 179.353 36.4187 178.939 36.6602C178.487 36.9027 177.982 37.0296 177.469 37.0296C176.956 37.0296 176.451 36.9027 175.999 36.6602L176.069 36.7002ZM178.719 36.2702C179.072 36.0678 179.359 35.7696 179.549 35.4102C179.755 35.0262 179.858 34.5957 179.849 34.1602C179.858 33.7247 179.755 33.2943 179.549 32.9102C179.359 32.5509 179.072 32.2527 178.719 32.0502C178.359 31.8469 177.953 31.7401 177.539 31.7401C177.126 31.7401 176.719 31.8469 176.359 32.0502C176.007 32.2527 175.719 32.5509 175.529 32.9102C175.324 33.2943 175.22 33.7247 175.229 34.1602C175.22 34.5957 175.324 35.0262 175.529 35.4102C175.719 35.7696 176.007 36.0678 176.359 36.2702C176.719 36.4735 177.126 36.5803 177.539 36.5803C177.953 36.5803 178.359 36.4735 178.719 36.2702V36.2702Z" fill="white"/>
<path d="M180.93 39.11C180.74 39.0545 180.565 38.9551 180.42 38.82L180.64 38.42C180.902 38.6405 181.238 38.7546 181.58 38.74C181.722 38.7478 181.865 38.725 181.997 38.6733C182.13 38.6215 182.25 38.542 182.35 38.44C182.536 38.1933 182.628 37.8885 182.61 37.58V31.29H183.16V37.6C183.181 38.0285 183.033 38.4481 182.75 38.77C182.602 38.9203 182.424 39.0373 182.227 39.1131C182.031 39.189 181.82 39.2221 181.61 39.21C181.38 39.2084 181.151 39.1747 180.93 39.11V39.11ZM182.57 29.76C182.527 29.7213 182.492 29.6734 182.47 29.6197C182.447 29.5661 182.437 29.5081 182.44 29.45C182.439 29.3907 182.45 29.3317 182.472 29.2767C182.495 29.2217 182.528 29.1718 182.57 29.13C182.611 29.0864 182.66 29.0521 182.716 29.0297C182.771 29.0072 182.83 28.9971 182.89 29C182.948 28.9979 183.006 29.0084 183.059 29.0309C183.113 29.0533 183.161 29.0871 183.2 29.13C183.244 29.1686 183.279 29.2163 183.304 29.2698C183.328 29.3233 183.34 29.3813 183.34 29.44C183.34 29.5002 183.328 29.5597 183.304 29.6149C183.28 29.67 183.244 29.7194 183.2 29.76C183.161 29.8029 183.113 29.8367 183.059 29.8591C183.006 29.8816 182.948 29.8921 182.89 29.89C182.83 29.8929 182.771 29.8828 182.716 29.8603C182.66 29.8379 182.611 29.8036 182.57 29.76V29.76Z" fill="white"/>
<path d="M190.77 34.2898H185.83C185.839 34.7091 185.956 35.1189 186.17 35.4798C186.382 35.8226 186.682 36.1022 187.04 36.2898C187.416 36.4849 187.835 36.5845 188.26 36.5798C188.603 36.577 188.942 36.5091 189.26 36.3798C189.571 36.2475 189.845 36.0416 190.06 35.7798L190.38 36.1398C190.127 36.4429 189.804 36.6798 189.44 36.8298C189.05 36.9916 188.632 37.0732 188.21 37.0698C187.679 37.083 187.155 36.9554 186.69 36.6998C186.253 36.4674 185.887 36.122 185.63 35.6998C185.372 35.2387 185.241 34.7178 185.25 34.1898C185.24 33.6673 185.364 33.1511 185.61 32.6898C185.845 32.2708 186.191 31.9247 186.61 31.6898C187.032 31.4353 187.517 31.3038 188.01 31.3098C188.504 31.3064 188.99 31.4341 189.42 31.6798C189.836 31.9183 190.181 32.2635 190.42 32.6798C190.657 33.1437 190.777 33.6587 190.77 34.1798V34.2898ZM187 31.9998C186.674 32.1761 186.404 32.4392 186.22 32.7598C186.022 33.0948 185.905 33.4716 185.88 33.8598H190.28C190.267 33.4707 190.153 33.0917 189.95 32.7598C189.761 32.4425 189.492 32.1805 189.17 31.9998C188.835 31.8229 188.463 31.7304 188.085 31.7304C187.706 31.7304 187.334 31.8229 187 31.9998V31.9998Z" fill="white"/>
<path d="M193.71 36.7C193.291 36.4639 192.946 36.1181 192.71 35.7C192.454 35.2419 192.323 34.7247 192.33 34.2C192.321 33.672 192.452 33.1512 192.71 32.69C192.943 32.2701 193.29 31.9237 193.71 31.69C194.17 31.4417 194.686 31.3144 195.21 31.32C195.644 31.3147 196.075 31.407 196.47 31.59C196.837 31.7686 197.151 32.0411 197.38 32.38L196.98 32.68C196.783 32.4012 196.517 32.1774 196.21 32.03C195.896 31.8879 195.554 31.8162 195.21 31.82C194.797 31.7763 194.381 31.8383 194 32C193.649 32.2036 193.359 32.4971 193.16 32.85C192.954 33.2413 192.851 33.6782 192.86 34.12C192.849 34.5589 192.953 34.9929 193.16 35.38C193.356 35.7379 193.646 36.0353 194 36.24C194.37 36.4431 194.787 36.5465 195.21 36.54C195.554 36.5439 195.896 36.4722 196.21 36.33C196.517 36.1826 196.783 35.9589 196.98 35.68L197.38 35.98C197.151 36.3162 196.837 36.5854 196.47 36.76C196.075 36.9431 195.644 37.0353 195.21 37.03C194.689 37.0521 194.172 36.9383 193.71 36.7V36.7Z" fill="white"/>
<path d="M202.39 36.67C202.239 36.8045 202.062 36.9066 201.87 36.97C201.657 37.0388 201.434 37.0726 201.21 37.07C201 37.092 200.787 37.0668 200.588 36.9961C200.389 36.9255 200.208 36.8113 200.058 36.6618C199.909 36.5123 199.794 36.3313 199.724 36.1321C199.653 35.9328 199.628 35.7203 199.65 35.51V31.76H198.59V31.29H199.65V30H200.2V31.29H202V31.76H200.2V35.46C200.177 35.7675 200.274 36.0719 200.47 36.31C200.574 36.4142 200.699 36.4942 200.837 36.5443C200.976 36.5945 201.123 36.6135 201.27 36.6C201.597 36.614 201.917 36.4991 202.16 36.28L202.39 36.67Z" fill="white"/>
</g>
<defs>
<clipPath id="clip0_1_314">
<rect width="126.39" height="10.21" fill="white" transform="translate(76 29)"/>
</clipPath>
</defs>
</svg>
