<svg width="147" height="23" viewBox="0 0 147 23" fill="none" xmlns="http://www.w3.org/2000/svg">
<g clip-path="url(#clip0_1082_4107)">
<path fill-rule="evenodd" clip-rule="evenodd" d="M1.07039 23H5.44114C5.70874 23 5.88714 22.9115 6.15473 22.8231C6.33313 22.6462 6.51153 22.4692 6.51153 22.2923L7.31432 19.2846L10.4363 7.51923C10.5255 7.07692 10.7039 6.72308 10.8823 6.36923C11.1499 5.92692 11.5959 5.92692 12.1311 5.92692C12.6663 5.92692 19.713 5.92692 19.713 5.92692C19.8914 5.92692 19.9806 5.92692 20.159 6.01538C20.2482 6.01538 20.4266 6.10385 20.5158 6.19231C20.7834 6.45769 20.8726 6.81154 20.9618 7.16538C21.051 7.34231 22.1214 11.4115 22.1214 11.4115H11.1499C10.8823 11.4115 10.6147 11.5 10.4363 11.6769C10.2579 11.8538 10.0795 12.0308 10.0795 12.2962C9.90109 13.1808 9.0983 16.1 9.0983 16.1C9.0983 16.2769 9.0983 16.4538 9.0983 16.5423C9.1875 16.7192 9.1875 16.8077 9.3659 16.9846C9.4551 17.0731 9.6335 17.1615 9.72269 17.25C9.90109 17.3385 10.0795 17.3385 10.1687 17.3385C10.4363 17.3385 23.5485 17.3385 23.5485 17.3385L24.7973 21.9385L24.8865 22.2038C24.9757 22.3808 25.0649 22.6462 25.2433 22.7346C25.4217 22.9115 25.6893 22.9115 25.8677 22.9115C26.6705 22.9115 30.4169 22.9115 30.4169 22.9115C30.5953 22.9115 30.6845 22.8231 30.8629 22.7346C30.9521 22.6462 31.1305 22.5577 31.2197 22.4692C31.3089 22.3808 31.3981 22.2038 31.3981 22.1154C31.3981 22.0269 31.3981 21.85 31.3981 21.6731L30.3277 17.6923L27.4733 6.72308C27.4733 6.72308 26.6705 3.62692 25.0649 2.03462C23.5485 0.442308 21.4078 0.0884615 19.9806 0.0884615C18.5534 0.0884615 10.7931 0.0884615 10.7931 0.0884615C10.7931 0.0884615 8.11711 0.176923 6.60073 1.94615C5.08435 3.71538 4.72755 4.33462 3.92476 6.98846C3.12197 9.64231 0.089199 21.5846 0.089199 21.5846C0 21.7615 0 21.9385 0 22.1154C0 22.2923 0.089199 22.4692 0.178398 22.5577C0.267597 22.6462 0.445995 22.7346 0.535194 22.8231C0.713592 22.9115 0.89199 23 1.07039 23ZM32.8252 15.9231C32.8252 15.9231 32.736 17.5154 33.0928 18.4C33.4496 19.3731 33.9848 20.3462 34.966 21.1423C36.0364 21.9385 36.9284 22.9115 40.9424 22.9115C44.9563 22.9115 54.233 22.9115 54.233 22.9115C56.1062 22.9115 57.9794 22.2038 59.3174 20.9654C61.5473 18.8423 61.2797 15.8346 61.2797 15.8346V1.06154C61.2797 0.796154 61.1905 0.530769 60.9229 0.265385C60.6553 0 60.5661 0 60.2094 0H56.2846C56.017 0 55.6602 0.0884615 55.4818 0.353846C55.3034 0.530769 55.125 0.796154 55.125 1.15V16.6308C55.125 16.8962 54.9466 17.25 54.0546 17.25C52.895 17.25 39.9612 17.25 39.9612 17.25C39.7828 17.25 39.6044 17.25 39.426 17.1615C39.2476 17.0731 39.1584 16.9846 39.0692 16.8077V1.06154C39.0692 0.796154 38.98 0.530769 38.7124 0.265385C38.534 0.0884615 38.2664 0 37.9988 0H34.074C33.8064 0 33.4496 0.0884615 33.2712 0.353846C33.0928 0.530769 32.9144 0.796154 32.9144 1.15L32.8252 15.9231ZM64.6693 0.0884615H89.9126C90.1802 0.0884615 90.4478 0.176923 90.7154 0.353846C90.8938 0.530769 91.0722 0.796154 91.0722 1.06154V4.77692C91.0722 5.04231 90.983 5.30769 90.7154 5.48461C90.537 5.66154 90.2694 5.75 89.9126 5.75H80.3683V21.6731C80.3683 21.9385 80.2791 22.2038 80.0115 22.4692C79.8331 22.6462 79.4763 22.8231 79.2087 22.8231H75.1948C74.9272 22.8231 74.5704 22.7346 74.392 22.4692C74.2136 22.3808 74.0352 22.1154 74.0352 21.85V5.92692H64.6693C64.4017 5.92692 64.1341 5.83846 63.8665 5.66154C63.6881 5.48462 63.5097 5.21923 63.5097 4.95385V1.15C63.5097 0.884615 63.5989 0.619231 63.8665 0.442308C64.1341 0.176923 64.4017 0.0884615 64.6693 0.0884615ZM100.349 0.0884615H119.438C119.616 0.0884615 119.705 0.0884615 119.883 0.176923C120.062 0.265385 120.151 0.265385 120.24 0.353846C120.33 0.442308 120.419 0.530769 120.508 0.707692C120.597 0.884615 120.597 0.973077 120.597 1.15V4.95385C120.597 4.95385 120.597 5.92692 119.348 5.92692C118.1 5.92692 100.349 5.92692 100.349 5.92692C100.349 5.92692 99.2785 6.01538 99.2785 6.72308C99.2785 7.51923 99.2785 8.66923 99.2785 8.66923H119.259C119.259 8.66923 120.597 8.58077 120.597 9.64231C120.597 10.7038 120.597 13.6231 120.597 13.6231C120.597 13.6231 120.597 14.5962 119.348 14.5962C118.189 14.5962 99.1893 14.5962 99.1893 14.5962V16.3654C99.1893 16.3654 99.0109 17.1615 100.26 17.1615C101.509 17.1615 119.348 17.1615 119.348 17.1615C119.348 17.1615 120.686 17.0731 120.597 18.3115C120.597 19.55 120.597 21.9385 120.597 21.9385C120.597 21.9385 120.597 22.9115 119.348 22.9115C118.1 22.9115 100.081 22.9115 100.081 22.9115C100.081 22.9115 93.0346 22.6462 93.0346 16.1885C93.0346 9.73077 93.0346 5.92692 93.0346 5.92692C93.3914 2.65385 96.9594 0 100.349 0.0884615ZM122.381 1.15C122.381 0.973077 122.381 0.884615 122.47 0.707692C122.559 0.619231 122.649 0.442308 122.738 0.353846C122.827 0.265385 123.005 0.176923 123.095 0.176923C123.273 0.0884615 123.362 0.0884615 123.541 0.0884615C124.7 0.0884615 127.555 0.0884615 127.555 0.0884615C127.733 0.0884615 127.822 0.0884615 127.911 0.176923C128.001 0.265385 128.179 0.265385 128.268 0.353846C128.357 0.442308 128.447 0.530769 128.447 0.707692C128.536 0.796154 128.536 0.973077 128.536 1.06154C128.536 2.03462 128.536 16.1885 128.536 16.1885C128.536 16.1885 128.179 17.1615 129.695 17.0731C131.212 16.9846 145.84 17.0731 145.84 17.0731C145.84 17.0731 146.822 16.9846 146.911 18.2231C147 19.4615 146.911 21.9385 146.911 21.9385C146.911 22.1154 146.822 22.2038 146.822 22.3808C146.732 22.4692 146.643 22.6462 146.554 22.7346C146.465 22.8231 146.286 22.9115 146.197 22.9115C146.019 23 145.93 23 145.751 23C144.592 23 129.428 23 129.428 23C129.428 23 127.019 23 125.235 21.7615C123.451 20.4346 122.292 18.9308 122.292 16.4538C122.292 13.9769 122.381 1.15 122.381 1.15Z" fill="white"/>
</g>
<defs>
<clipPath id="clip0_1082_4107">
<rect width="147" height="23" fill="white"/>
</clipPath>
</defs>
</svg>
