<svg width="28" height="28" viewBox="0 0 28 28" fill="none" xmlns="http://www.w3.org/2000/svg">
<path fill-rule="evenodd" clip-rule="evenodd" d="M20.3813 2.88177C20.723 2.54006 21.277 2.54006 21.6187 2.88177L25.1187 6.38177C25.4604 6.72348 25.4604 7.2775 25.1187 7.61921L14.6187 18.1192C14.4546 18.2833 14.2321 18.3755 14 18.3755H10.5C10.0168 18.3755 9.625 17.9837 9.625 17.5005V14.0005C9.625 13.7684 9.71719 13.5459 9.88128 13.3818L20.3813 2.88177ZM11.375 14.3629V16.6255H13.6376L23.2626 7.00049L21 4.73793L11.375 14.3629Z" fill="#D2232A"/>
<path fill-rule="evenodd" clip-rule="evenodd" d="M17.7563 5.50677C18.098 5.16506 18.652 5.16506 18.9937 5.50677L22.4937 9.00677C22.8354 9.34848 22.8354 9.9025 22.4937 10.2442C22.152 10.5859 21.598 10.5859 21.2563 10.2442L17.7563 6.74421C17.4146 6.4025 17.4146 5.84848 17.7563 5.50677Z" fill="#D2232A"/>
<path fill-rule="evenodd" clip-rule="evenodd" d="M4.01256 4.01305C4.34075 3.68486 4.78587 3.50049 5.25 3.50049H14.875C15.3582 3.50049 15.75 3.89224 15.75 4.37549C15.75 4.85874 15.3582 5.25049 14.875 5.25049L5.25 5.25049L5.25 22.7505H22.75V13.1255C22.75 12.6422 23.1418 12.2505 23.625 12.2505C24.1082 12.2505 24.5 12.6422 24.5 13.1255V22.7505C24.5 23.2146 24.3156 23.6597 23.9874 23.9879C23.6592 24.3161 23.2141 24.5005 22.75 24.5005H5.25C4.78587 24.5005 4.34075 24.3161 4.01256 23.9879C3.68437 23.6597 3.5 23.2146 3.5 22.7505V5.25049C3.5 4.78636 3.68438 4.34124 4.01256 4.01305Z" fill="#D2232A"/>
</svg>
