<svg width="22" height="22" viewBox="0 0 22 22" fill="none" xmlns="http://www.w3.org/2000/svg">
<circle cx="11" cy="11" r="10.3654" fill="#E0E4EB" stroke="#D2232A" stroke-width="1.26923"/>
<path fill-rule="evenodd" clip-rule="evenodd" d="M8.57057 5.66148C8.74885 5.63861 8.92972 5.67496 9.08532 5.76495C9.24023 5.85454 9.36155 5.99234 9.43081 6.15729L10.4657 8.57209L10.4662 8.57312C10.5197 8.69695 10.5421 8.83203 10.5314 8.96654C10.5206 9.10141 10.4768 9.23157 10.4038 9.34553L10.4011 9.34977L9.54164 10.6569C9.92522 11.4481 10.565 12.0863 11.357 12.468L11.3587 12.4668L12.6467 11.6064C12.7611 11.5292 12.893 11.4821 13.0303 11.4695C13.1677 11.4568 13.306 11.479 13.4325 11.5341L13.4341 11.5347L15.8429 12.5693C16.0078 12.6386 16.1455 12.7599 16.2351 12.9147C16.3251 13.0703 16.3614 13.2512 16.3385 13.4295C16.2493 14.1259 15.9094 14.766 15.3823 15.2299C14.8553 15.6939 14.1773 15.9499 13.4751 15.95C11.5059 15.95 9.61721 15.1677 8.22475 13.7753C6.83229 12.3828 6.05002 10.4942 6.05002 8.52501C6.05018 7.82287 6.30617 7.14474 6.7701 6.6177C7.23401 6.09069 7.87416 5.75074 8.57057 5.66148ZM9.14377 10.7938L8.79746 11.0131C8.73655 10.8858 8.7093 10.745 8.71833 10.6042C8.72735 10.4633 8.77235 10.3272 8.84903 10.2087L8.85065 10.2062L9.70899 8.90071L9.70821 8.89891L8.67181 6.48063C8.1758 6.5451 7.71991 6.78729 7.38937 7.1628C7.05801 7.53924 6.87515 8.02351 6.87502 8.52501M9.14377 10.7938L8.79829 11.0148C9.26338 11.9752 10.04 12.7499 11.0017 13.2125L11.004 13.2136C11.1334 13.2749 11.2766 13.3015 11.4195 13.2906C11.562 13.2798 11.6992 13.2321 11.8177 13.1524L11.8186 13.1517L13.106 12.2918L15.5191 13.3281L15.5198 13.3284C15.4553 13.8244 15.2127 14.2801 14.8372 14.6107C14.4608 14.942 13.9765 15.1249 13.475 15.125M6.87502 8.52501C6.87504 10.2754 7.5704 11.9542 8.80811 13.1919C10.0458 14.4296 11.7246 15.125 13.475 15.125" fill="#D2232A"/>
</svg>
