<svg width="40" height="40" viewBox="0 0 40 40" fill="none" xmlns="http://www.w3.org/2000/svg">
<path fill-rule="evenodd" clip-rule="evenodd" d="M20.0001 6.7999C12.71 6.7999 6.80015 12.7097 6.80015 19.9999C6.80015 27.2901 12.71 33.1999 20.0001 33.1999C27.2903 33.1999 33.2001 27.2901 33.2001 19.9999C33.2001 12.7097 27.2903 6.7999 20.0001 6.7999ZM4.40015 19.9999C4.40015 11.3843 11.3845 4.3999 20.0001 4.3999C28.6158 4.3999 35.6001 11.3843 35.6001 19.9999C35.6001 28.6155 28.6158 35.5999 20.0001 35.5999C11.3845 35.5999 4.40015 28.6155 4.40015 19.9999Z" fill="#D2232A"/>
<path fill-rule="evenodd" clip-rule="evenodd" d="M17.0339 14.142C17.4241 13.9332 17.8976 13.9561 18.2658 14.2015L25.4658 19.0015C25.7996 19.2241 26.0001 19.5988 26.0001 20C26.0001 20.4012 25.7996 20.7759 25.4658 20.9985L18.2658 25.7985C17.8976 26.0439 17.4241 26.0668 17.0339 25.858C16.6437 25.6492 16.4001 25.2426 16.4001 24.8V15.2C16.4001 14.7574 16.6437 14.3508 17.0339 14.142ZM18.8001 17.4422V22.5578L22.6368 20L18.8001 17.4422Z" fill="#D2232A"/>
</svg>
