<svg width="207" height="287" viewBox="0 0 207 287" fill="none" xmlns="http://www.w3.org/2000/svg">
<path d="M201.333 3.50049C201.333 4.97325 202.527 6.16716 204 6.16716C205.473 6.16716 206.667 4.97325 206.667 3.50049C206.667 2.02773 205.473 0.833822 204 0.833822C202.527 0.833822 201.333 2.02773 201.333 3.50049ZM1 3.50049V3.00049H0.5V3.50049H1ZM1 283.5H0.5V284H1V283.5ZM49.8333 283.5C49.8333 284.973 51.0272 286.167 52.5 286.167C53.9728 286.167 55.1667 284.973 55.1667 283.5C55.1667 282.028 53.9728 280.834 52.5 280.834C51.0272 280.834 49.8333 282.028 49.8333 283.5ZM204 3.00049H1V4.00049H204V3.00049ZM0.5 3.50049V283.5H1.5V3.50049H0.5ZM1 284H52.5V283H1V284Z" fill="#D2232A"/>
</svg>
