<svg width="24" height="25" viewBox="0 0 24 25" fill="none" xmlns="http://www.w3.org/2000/svg">
<path d="M6 2.41846L3 6.41846V20.4185C3 20.9489 3.21071 21.4576 3.58579 21.8327C3.96086 22.2077 4.46957 22.4185 5 22.4185H19C19.5304 22.4185 20.0391 22.2077 20.4142 21.8327C20.7893 21.4576 21 20.9489 21 20.4185V6.41846L18 2.41846H6Z" stroke="#343535" stroke-width="2" stroke-linecap="round" stroke-linejoin="round"/>
<path d="M3 6.41846H21" stroke="#343535" stroke-width="2" stroke-linecap="round" stroke-linejoin="round"/>
<path d="M16 10.4185C16 11.4793 15.5786 12.4967 14.8284 13.2469C14.0783 13.997 13.0609 14.4185 12 14.4185C10.9391 14.4185 9.92172 13.997 9.17157 13.2469C8.42143 12.4967 8 11.4793 8 10.4185" stroke="#343535" stroke-width="2" stroke-linecap="round" stroke-linejoin="round"/>
</svg>
