<svg width="20" height="20" viewBox="0 0 20 20" fill="none" xmlns="http://www.w3.org/2000/svg">
<path fill-rule="evenodd" clip-rule="evenodd" d="M1.875 5.625C1.875 5.27982 2.15482 5 2.5 5H4.30545C5.19963 5.0011 6.08066 5.21535 6.87549 5.62499C7.67022 6.03458 8.35587 6.62772 8.87559 7.35522C8.87565 7.3553 8.87553 7.35514 8.87559 7.35522L12.141 11.9175C12.5453 12.4834 13.079 12.9453 13.6972 13.2639C14.3152 13.5824 15.0003 13.7491 15.6956 13.75C15.6958 13.75 15.6955 13.75 15.6956 13.75H18.125C18.4702 13.75 18.75 14.0298 18.75 14.375C18.75 14.7202 18.4702 15 18.125 15L15.6945 15C14.8004 14.9989 13.9193 14.7847 13.1245 14.375C12.3298 13.9654 11.6442 13.3723 11.1245 12.6449C11.1244 12.6448 11.1245 12.645 11.1245 12.6449L7.85896 8.08252C7.45471 7.5166 6.92103 7.05471 6.30284 6.7361C5.68475 6.41755 4.99964 6.25091 4.3043 6.25H2.5C2.15482 6.25 1.875 5.97018 1.875 5.625Z" fill="#D2232A"/>
<path fill-rule="evenodd" clip-rule="evenodd" d="M15.8081 3.30806C16.0521 3.06398 16.4479 3.06398 16.6919 3.30806L18.5669 5.18306C18.811 5.42714 18.811 5.82286 18.5669 6.06694L16.6919 7.94194C16.4479 8.18602 16.0521 8.18602 15.8081 7.94194C15.564 7.69786 15.564 7.30214 15.8081 7.05806L17.2411 5.625L15.8081 4.19194C15.564 3.94786 15.564 3.55214 15.8081 3.30806Z" fill="#D2232A"/>
<path fill-rule="evenodd" clip-rule="evenodd" d="M15.8081 12.0581C16.0521 11.814 16.4479 11.814 16.6919 12.0581L18.5669 13.9331C18.811 14.1771 18.811 14.5729 18.5669 14.8169L16.6919 16.6919C16.4479 16.936 16.0521 16.936 15.8081 16.6919C15.564 16.4479 15.564 16.0521 15.8081 15.8081L17.2411 14.375L15.8081 12.9419C15.564 12.6979 15.564 12.3021 15.8081 12.0581Z" fill="#D2232A"/>
<path fill-rule="evenodd" clip-rule="evenodd" d="M15.6946 5L15.6954 5L18.1251 5C18.4702 5 18.7501 5.27982 18.7501 5.625C18.7501 5.97018 18.4702 6.25 18.1251 6.25H15.6957C15.0004 6.25091 14.3153 6.41755 13.6972 6.7361C13.0795 7.05445 12.5465 7.51536 12.1424 8.08066L12.0497 8.21199C11.8507 8.49399 11.4607 8.56123 11.1787 8.36217C10.8967 8.16311 10.8295 7.77314 11.0285 7.49114L11.1243 7.35546C11.644 6.62785 12.3297 6.03463 13.1246 5.62499C13.9194 5.21535 14.8004 5.0011 15.6946 5Z" fill="#D2232A"/>
<path fill-rule="evenodd" clip-rule="evenodd" d="M8.82137 11.6379C9.10336 11.8369 9.1706 12.2269 8.97154 12.5089L8.87779 12.6417L8.87577 12.6446C8.35603 13.3722 7.67031 13.9654 6.87549 14.3751C6.08066 14.7847 5.19963 14.999 4.30545 15.0001L2.5 15.0001C2.15482 15.0001 1.875 14.7202 1.875 14.3751C1.875 14.0299 2.15482 13.7501 2.5 13.7501H4.30427C4.99962 13.7491 5.68474 13.5825 6.30284 13.264C6.92054 12.9456 7.45351 12.4847 7.85764 11.9194L7.95033 11.7881C8.14939 11.5061 8.53937 11.4388 8.82137 11.6379Z" fill="#D2232A"/>
</svg>
