<svg width="32" height="33" viewBox="0 0 32 33" fill="none" xmlns="http://www.w3.org/2000/svg">
<path fill-rule="evenodd" clip-rule="evenodd" d="M16 6.5C10.4772 6.5 6 10.9772 6 16.5C6 22.0228 10.4772 26.5 16 26.5C21.5228 26.5 26 22.0228 26 16.5C26 10.9772 21.5228 6.5 16 6.5ZM4 16.5C4 9.87258 9.37258 4.5 16 4.5C22.6274 4.5 28 9.87258 28 16.5C28 23.1274 22.6274 28.5 16 28.5C9.37258 28.5 4 23.1274 4 16.5Z" fill="#D2232A"/>
<path fill-rule="evenodd" clip-rule="evenodd" d="M21.6571 10.8427C22.0476 11.2332 22.0476 11.8664 21.6571 12.2569L16.7071 17.2069C16.3166 17.5974 15.6834 17.5974 15.2929 17.2069C14.9024 16.8164 14.9024 16.1832 15.2929 15.7927L20.2429 10.8427C20.6334 10.4522 21.2666 10.4522 21.6571 10.8427Z" fill="#D2232A"/>
<path fill-rule="evenodd" clip-rule="evenodd" d="M12 1.5C12 0.947715 12.4477 0.5 13 0.5H19C19.5523 0.5 20 0.947715 20 1.5C20 2.05228 19.5523 2.5 19 2.5H13C12.4477 2.5 12 2.05228 12 1.5Z" fill="#D2232A"/>
</svg>
