<svg width="28" height="28" viewBox="0 0 28 28" fill="none" xmlns="http://www.w3.org/2000/svg">
<path fill-rule="evenodd" clip-rule="evenodd" d="M14 4.37549C8.68426 4.37549 4.375 8.68475 4.375 14.0005C4.375 19.3162 8.68426 23.6255 14 23.6255C19.3157 23.6255 23.625 19.3162 23.625 14.0005C23.625 8.68475 19.3157 4.37549 14 4.37549ZM2.625 14.0005C2.625 7.71825 7.71776 2.62549 14 2.62549C20.2822 2.62549 25.375 7.71825 25.375 14.0005C25.375 20.2827 20.2822 25.3755 14 25.3755C7.71776 25.3755 2.625 20.2827 2.625 14.0005Z" fill="#D2232A"/>
<path fill-rule="evenodd" clip-rule="evenodd" d="M14 9.62549C12.067 9.62549 10.5 11.1925 10.5 13.1255C10.5 15.0585 12.067 16.6255 14 16.6255C15.933 16.6255 17.5 15.0585 17.5 13.1255C17.5 11.1925 15.933 9.62549 14 9.62549ZM8.75 13.1255C8.75 10.226 11.1005 7.87549 14 7.87549C16.8995 7.87549 19.25 10.226 19.25 13.1255C19.25 16.025 16.8995 18.3755 14 18.3755C11.1005 18.3755 8.75 16.025 8.75 13.1255Z" fill="#D2232A"/>
<path fill-rule="evenodd" clip-rule="evenodd" d="M13.9986 18.375C12.7059 18.375 11.4385 18.733 10.3368 19.4092C9.23509 20.0854 8.34215 21.0535 7.75696 22.2062C7.5382 22.637 7.01154 22.809 6.58064 22.5903C6.14975 22.3715 5.97778 21.8448 6.19654 21.4139C6.92803 19.9731 8.0442 18.763 9.42133 17.9177C10.7985 17.0724 12.3828 16.625 13.9986 16.625C15.6145 16.625 17.1988 17.0724 18.5759 17.9177C19.953 18.763 21.0692 19.9731 21.8007 21.4139C22.0195 21.8448 21.8475 22.3715 21.4166 22.5903C20.9857 22.809 20.4591 22.637 20.2403 22.2062C19.6551 21.0535 18.7622 20.0854 17.6605 19.4092C16.5588 18.733 15.2913 18.375 13.9986 18.375Z" fill="#D2232A"/>
</svg>
