<svg width="24" height="24" viewBox="0 0 24 24" fill="none" xmlns="http://www.w3.org/2000/svg">
<circle cx="12" cy="12" r="11.25" fill="#D2232A" stroke="#D2232A" stroke-width="1.5"/>
<path fill-rule="evenodd" clip-rule="evenodd" d="M7.20007 11.9994C7.20007 11.668 7.4687 11.3994 7.80007 11.3994H16.2001C16.5314 11.3994 16.8001 11.668 16.8001 11.9994C16.8001 12.3308 16.5314 12.5994 16.2001 12.5994H7.80007C7.4687 12.5994 7.20007 12.3308 7.20007 11.9994Z" fill="#E0E4EB"/>
<path fill-rule="evenodd" clip-rule="evenodd" d="M11.5758 7.37593C11.8101 7.14162 12.19 7.14162 12.4243 7.37593L16.6243 11.5759C16.8586 11.8102 16.8586 12.1901 16.6243 12.4245L12.4243 16.6245C12.19 16.8588 11.8101 16.8588 11.5758 16.6245C11.3414 16.3901 11.3414 16.0102 11.5758 15.7759L15.3515 12.0002L11.5758 8.22446C11.3414 7.99014 11.3414 7.61025 11.5758 7.37593Z" fill="#E0E4EB"/>
</svg>
