<svg width="28" height="28" viewBox="0 0 28 28" fill="none" xmlns="http://www.w3.org/2000/svg">
<path fill-rule="evenodd" clip-rule="evenodd" d="M4.99499 4.99576C5.30443 4.68632 5.72411 4.51248 6.16172 4.51248H21.8367C22.2743 4.51248 22.694 4.68632 23.0034 4.99576C23.3129 5.30519 23.4867 5.72488 23.4867 6.16248V21.8375C23.4867 22.2751 23.3129 22.6948 23.0034 23.0042C22.694 23.3136 22.2743 23.4875 21.8367 23.4875H14.783C14.3273 23.4875 13.958 23.1181 13.958 22.6625C13.958 22.2068 14.3273 21.8375 14.783 21.8375H21.8367V6.16248L6.16172 6.16248L6.16172 15.5778C6.16172 16.0334 5.79235 16.4028 5.33672 16.4028C4.88108 16.4028 4.51172 16.0334 4.51172 15.5778V6.16248C4.51172 5.72487 4.68556 5.30519 4.99499 4.99576Z" fill="#E0E4EB"/>
<path fill-rule="evenodd" clip-rule="evenodd" d="M14.5857 15.8916C14.9079 16.2138 14.9079 16.7362 14.5857 17.0584L7.98571 23.6584C7.66352 23.9805 7.14116 23.9805 6.81898 23.6584L3.51898 20.3584C3.1968 20.0362 3.1968 19.5138 3.51898 19.1916C3.84116 18.8694 4.36352 18.8694 4.68571 19.1916L7.40234 21.9083L13.419 15.8916C13.7412 15.5694 14.2635 15.5694 14.5857 15.8916Z" fill="#E0E4EB"/>
</svg>
