<svg width="28" height="28" viewBox="0 0 28 28" fill="none" xmlns="http://www.w3.org/2000/svg">
<path fill-rule="evenodd" clip-rule="evenodd" d="M4.88756 3.13805C5.21575 2.80986 5.66087 2.62549 6.125 2.62549H16.625C16.8571 2.62549 17.0796 2.71768 17.2437 2.88177L23.3687 9.00677C23.5328 9.17086 23.625 9.39342 23.625 9.62549V23.6255C23.625 24.0896 23.4406 24.5347 23.1124 24.8629C22.7842 25.1911 22.3391 25.3755 21.875 25.3755H6.125C5.66087 25.3755 5.21575 25.1911 4.88756 24.8629C4.55937 24.5347 4.375 24.0896 4.375 23.6255V4.37549C4.375 3.91136 4.55938 3.46624 4.88756 3.13805ZM16.2626 4.37549L6.125 4.37549L6.125 23.6255H21.875V9.98793L16.2626 4.37549Z" fill="#D2232A"/>
<path fill-rule="evenodd" clip-rule="evenodd" d="M16.625 2.62549C17.1082 2.62549 17.5 3.01724 17.5 3.50049V8.75049H22.75C23.2332 8.75049 23.625 9.14224 23.625 9.62549C23.625 10.1087 23.2332 10.5005 22.75 10.5005H16.625C16.1418 10.5005 15.75 10.1087 15.75 9.62549V3.50049C15.75 3.01724 16.1418 2.62549 16.625 2.62549Z" fill="#D2232A"/>
<path fill-rule="evenodd" clip-rule="evenodd" d="M9.625 14.8755C9.625 14.3922 10.0168 14.0005 10.5 14.0005H17.5C17.9832 14.0005 18.375 14.3922 18.375 14.8755C18.375 15.3587 17.9832 15.7505 17.5 15.7505H10.5C10.0168 15.7505 9.625 15.3587 9.625 14.8755Z" fill="#D2232A"/>
<path fill-rule="evenodd" clip-rule="evenodd" d="M9.625 18.3755C9.625 17.8922 10.0168 17.5005 10.5 17.5005H17.5C17.9832 17.5005 18.375 17.8922 18.375 18.3755C18.375 18.8587 17.9832 19.2505 17.5 19.2505H10.5C10.0168 19.2505 9.625 18.8587 9.625 18.3755Z" fill="#D2232A"/>
</svg>
