<svg width="32" height="37" viewBox="0 0 32 37" fill="none" xmlns="http://www.w3.org/2000/svg">
<path d="M3 0.333332C1.52724 0.333332 0.333336 1.52724 0.333336 3C0.333336 4.47276 1.52724 5.66667 3 5.66667C4.47276 5.66667 5.66667 4.47276 5.66667 3C5.66667 1.52724 4.47276 0.333332 3 0.333332ZM29 3L29.5 3L29.5 2.5L29 2.5L29 3ZM29 31.3333C27.5272 31.3333 26.3333 32.5272 26.3333 34C26.3333 35.4728 27.5272 36.6667 29 36.6667C30.4728 36.6667 31.6667 35.4728 31.6667 34C31.6667 32.5272 30.4728 31.3333 29 31.3333ZM3 3.5L29 3.5L29 2.5L3 2.5L3 3.5ZM28.5 3L28.5 34L29.5 34L29.5 3L28.5 3Z" fill="#D2232A"/>
</svg>
