<svg width="18" height="64" viewBox="0 0 18 64" fill="none" xmlns="http://www.w3.org/2000/svg">
<path d="M0.999993 1L0.499993 1L0.499993 0.500001L0.999993 0.500001L0.999993 1ZM0.999999 61L0.999999 61.5L0.499999 61.5L0.499999 61L0.999999 61ZM17.6667 61C17.6667 62.4728 16.4728 63.6667 15 63.6667C13.5272 63.6667 12.3333 62.4728 12.3333 61C12.3333 59.5272 13.5272 58.3333 15 58.3333C16.4728 58.3333 17.6667 59.5272 17.6667 61ZM15 1.5L0.999993 1.5L0.999993 0.500001L15 0.500001L15 1.5ZM1.49999 1L1.5 61L0.499999 61L0.499993 1L1.49999 1ZM0.999999 60.5L15 60.5L15 61.5L0.999999 61.5L0.999999 60.5Z" fill="#535353"/>
</svg>
