<svg width="113" height="94" viewBox="0 0 113 94" fill="none" xmlns="http://www.w3.org/2000/svg">
<path d="M1.00013 1.00001L0.50013 1.00001L0.50013 0.50001L1.00013 0.50001L1.00013 1.00001ZM1.00014 91L1.00014 91.5L0.500138 91.5L0.500138 91L1.00014 91ZM112.667 91C112.667 92.4728 111.473 93.6667 110 93.6667C108.527 93.6667 107.333 92.4728 107.333 91C107.333 89.5272 108.527 88.3333 110 88.3333C111.473 88.3333 112.667 89.5272 112.667 91ZM23.3471 1.50001L1.00013 1.50001L1.00013 0.50001L23.3471 0.500008L23.3471 1.50001ZM1.50013 1.00001L1.50014 91L0.500138 91L0.50013 1.00001L1.50013 1.00001ZM1.00014 90.5L110 90.5L110 91.5L1.00014 91.5L1.00014 90.5Z" fill="#535353"/>
</svg>
