<svg width="24" height="24" viewBox="0 0 24 24" fill="none" xmlns="http://www.w3.org/2000/svg">
<path fill-rule="evenodd" clip-rule="evenodd" d="M13.8389 5.38078L11.9956 7.22414C11.7027 7.51704 11.2278 7.51704 10.9349 7.22414C10.642 6.93125 10.642 6.45638 10.9349 6.16348L12.7912 4.30723C12.7993 4.29905 12.8077 4.29106 12.8163 4.28326C13.7447 3.43699 14.9636 2.98102 16.2196 3.0101C17.4755 3.03918 18.672 3.55106 19.5603 4.43939C20.4486 5.32772 20.9605 6.52417 20.9896 7.78012C21.0187 9.03606 20.5627 10.2549 19.7164 11.1834C19.7083 11.1923 19.7 11.201 19.6915 11.2095L17.0403 13.8513C17.04 13.8516 17.0397 13.8519 17.0393 13.8523C16.5875 14.3055 16.0506 14.6652 15.4596 14.9107C14.868 15.1564 14.2339 15.2828 13.5934 15.2828C12.9529 15.2828 12.3187 15.1564 11.7272 14.9107C11.1357 14.665 10.5985 14.305 10.1464 13.8513C9.85407 13.5578 9.85496 13.083 10.1484 12.7906C10.4418 12.4983 10.9167 12.4992 11.2091 12.7926C11.5217 13.1065 11.8933 13.3555 12.3025 13.5254C12.7116 13.6954 13.1503 13.7828 13.5934 13.7828C14.0364 13.7828 14.4751 13.6954 14.8842 13.5254C15.2934 13.3555 15.665 13.1065 15.9777 12.7926L15.9796 12.7907L18.6193 10.1603C19.1983 9.51854 19.51 8.67937 19.49 7.81483C19.4698 6.94459 19.1151 6.11557 18.4996 5.50005C17.8841 4.88453 17.0551 4.52984 16.1848 4.5097C15.3201 4.48968 14.4807 4.80151 13.8389 5.38078Z" fill="#D2232A"/>
<path fill-rule="evenodd" clip-rule="evenodd" d="M10.4053 10.2168C9.9623 10.2168 9.52362 10.3043 9.11446 10.4742C8.7053 10.6441 8.33372 10.8932 8.02103 11.207L8.01911 11.209L8.0191 11.209L5.37938 13.8393C4.80038 14.4811 4.48871 15.3203 4.50872 16.1848C4.52887 17.055 4.88355 17.8841 5.49907 18.4996C6.11459 19.1151 6.94361 19.4698 7.81386 19.4899C8.6786 19.5099 9.51797 19.1981 10.1598 18.6188L12.0031 16.7755C12.296 16.4826 12.7709 16.4826 13.0638 16.7755C13.3567 17.0684 13.3567 17.5432 13.0638 17.8361L11.2075 19.6924C11.1994 19.7006 11.191 19.7086 11.1824 19.7164C10.2539 20.5626 9.03509 21.0186 7.77914 20.9895C6.52319 20.9604 5.32674 20.4486 4.43841 19.5602C3.55009 18.6719 3.0382 17.4755 3.00912 16.2195C2.98005 14.9636 3.43602 13.7447 4.28228 12.8162C4.29038 12.8073 4.29868 12.7986 4.3072 12.7902L6.95839 10.1483C6.95873 10.148 6.95907 10.1477 6.95941 10.1473C7.41125 9.69406 7.94807 9.33439 8.53914 9.08891C9.13065 8.84325 9.76484 8.7168 10.4053 8.7168C11.0458 8.7168 11.68 8.84325 12.2715 9.08891C12.863 9.33457 13.4002 9.6946 13.8523 10.1483C14.1446 10.4418 14.1437 10.9167 13.8503 11.209C13.5569 11.5014 13.082 11.5005 12.7896 11.207C12.477 10.8932 12.1054 10.6441 11.6962 10.4742C11.2871 10.3043 10.8484 10.2168 10.4053 10.2168Z" fill="#D2232A"/>
</svg>
