<svg width="166" height="26" viewBox="0 0 166 26" fill="none" xmlns="http://www.w3.org/2000/svg">
<path fill-rule="evenodd" clip-rule="evenodd" d="M1.6671 25.9827L6.5768 25.9997C6.85164 26.0057 7.12058 25.9223 7.34044 25.7631C7.5603 25.6038 7.71833 25.3778 7.78913 25.1215L8.68041 21.7548L12.2173 8.46961C12.3181 8.01311 12.4769 7.57036 12.69 7.15138C12.9744 6.6789 13.5003 6.66009 14.0793 6.67005C14.6583 6.68001 22.6264 6.65198 22.6264 6.65198C22.7855 6.65505 22.9422 6.69043 23.0862 6.75582C23.2302 6.82121 23.3583 6.91515 23.4622 7.03151C23.7144 7.37166 23.8906 7.75862 23.9797 8.1679C24.0329 8.38219 25.2815 12.9377 25.2815 12.9377L12.9748 12.9288C12.6879 12.928 12.4104 13.0269 12.1928 13.2073C11.9753 13.3877 11.8323 13.6376 11.79 13.9114C11.558 14.9353 10.7332 18.2161 10.7332 18.2161C10.7013 18.3917 10.7111 18.5719 10.7617 18.7432C10.8124 18.9146 10.9025 19.0727 11.0255 19.2056C11.1485 19.3386 11.3011 19.4429 11.4718 19.5108C11.6425 19.5788 11.8269 19.6085 12.0112 19.5978C12.3052 19.6059 27.0461 19.5856 27.0461 19.5856L28.4541 24.8043L28.5443 25.1466C28.6223 25.3884 28.7775 25.6001 28.9878 25.7516C29.1981 25.903 29.4526 25.9864 29.715 25.9897C30.6418 25.9986 34.7806 25.9742 34.7806 25.9742C34.948 25.9549 35.1093 25.9017 35.2538 25.8179C35.3983 25.7342 35.5229 25.6219 35.6193 25.4884C35.7157 25.3549 35.7817 25.2033 35.813 25.0434C35.8443 24.8835 35.8403 24.7191 35.8011 24.5609L34.5998 20.0592L31.2873 7.60026C31.2873 7.60026 30.3597 4.08672 28.6139 2.33031C26.868 0.573911 24.5503 0.160076 22.9463 0.126881C21.3422 0.0936853 12.6453 0.161182 12.6453 0.161182C12.6453 0.161182 9.65119 0.264457 7.90608 2.26355C6.16097 4.26265 5.83877 4.94832 4.91118 7.94365C3.98359 10.939 0.564465 24.4757 0.564465 24.4757C0.501519 24.6486 0.484315 24.8339 0.514416 25.0148C0.544518 25.1957 0.620971 25.3665 0.736835 25.5117C0.849342 25.6488 0.990416 25.7615 1.15093 25.8427C1.31144 25.9238 1.48781 25.9715 1.66863 25.9827H1.6671ZM37.3474 17.979C37.3474 17.979 37.2225 19.7387 37.6681 20.7895C38.1137 21.8403 38.6305 22.994 39.8065 23.8877C40.9825 24.7814 42.0163 25.9204 46.472 25.9204C50.9276 25.9204 61.4075 25.9547 61.4075 25.9547C63.5411 25.9654 65.5954 25.1742 67.1351 23.7487C69.6304 21.3723 69.2979 17.9779 69.2979 17.9779V1.23892C69.297 0.910611 69.1615 0.595995 68.9209 0.363841C68.6803 0.131687 68.3543 0.000876157 68.0141 0H63.594C63.2539 0.000973883 62.928 0.131839 62.6876 0.363993C62.4472 0.596146 62.3118 0.910708 62.311 1.23892V18.6989C62.2705 18.9604 62.0629 19.3669 61.1571 19.3783C59.8194 19.3953 45.3311 19.3783 45.3311 19.3783C45.1362 19.3846 44.9428 19.3437 44.7685 19.2593C44.5942 19.1749 44.4445 19.0497 44.3332 18.8952V1.23892C44.3324 0.910708 44.197 0.596146 43.9566 0.363993C43.7162 0.131839 43.3903 0.000973883 43.0502 0H38.6312C38.2911 0.000973883 37.9653 0.131839 37.7248 0.363993C37.4844 0.596146 37.349 0.910708 37.3482 1.23892V17.9804L37.3474 17.979ZM73.0167 0.105119H101.308C101.632 0.104328 101.943 0.227354 102.174 0.447325C102.404 0.667297 102.535 0.966336 102.538 1.27913V5.47207C102.535 5.7847 102.404 6.08351 102.173 6.30326C101.943 6.52302 101.632 6.64586 101.308 6.64497H90.5973V24.6623C90.5983 24.9883 90.4655 25.3015 90.2279 25.5333C89.9904 25.7652 89.6674 25.8969 89.3296 25.8997H84.7971C84.4593 25.8969 84.1363 25.7652 83.8988 25.5333C83.6613 25.3015 83.5285 24.9883 83.5294 24.6623V6.64497H73.0163C72.6924 6.64567 72.3813 6.52276 72.151 6.30305C71.9206 6.08334 71.7895 5.78463 71.7864 5.47207V1.2806C71.7892 0.967843 71.9201 0.668859 72.1506 0.448908C72.381 0.228958 72.6922 0.105901 73.0163 0.106594L73.0167 0.105119ZM112.994 0.0970044H134.362C134.523 0.0906467 134.683 0.115596 134.833 0.170357C134.983 0.225117 135.12 0.308561 135.236 0.415682C135.351 0.522803 135.444 0.651395 135.507 0.793746C135.57 0.936097 135.602 1.08927 135.603 1.24409V5.5226C135.603 5.5226 135.567 6.65013 134.168 6.65013C132.769 6.65013 112.822 6.63317 112.822 6.63317C112.822 6.63317 111.665 6.68444 111.648 7.54567C111.63 8.40691 111.629 9.69968 111.629 9.69968H134.049C134.049 9.69968 135.582 9.63034 135.582 10.8353C135.582 12.0403 135.593 15.2865 135.593 15.2865C135.593 15.2865 135.556 16.3823 134.229 16.3823C132.902 16.3823 111.664 16.3992 111.664 16.3992L111.647 18.4489C111.647 18.4489 111.432 19.3953 112.806 19.3783C114.18 19.3614 134.192 19.3783 134.192 19.3783C134.192 19.3783 135.653 19.2758 135.617 20.6873C135.581 22.0989 135.581 24.8183 135.581 24.8183C135.581 24.8183 135.6 25.9377 134.192 25.9377C132.784 25.9377 112.555 25.9558 112.555 25.9558C112.555 25.9558 104.678 25.6452 104.644 18.3437C104.61 11.0422 104.679 6.73681 104.679 6.73681C105.152 2.99422 109.166 -0.00848347 112.995 0.0977416L112.994 0.0970044ZM137.653 1.2522C137.654 1.08929 137.69 0.928313 137.759 0.779549C137.828 0.630786 137.928 0.497499 138.053 0.388185C138.178 0.278871 138.326 0.19593 138.486 0.144652C138.646 0.0933752 138.816 0.074886 138.984 0.0903647C140.324 0.0903647 143.532 0.103274 143.532 0.103274C143.682 0.101487 143.832 0.128815 143.971 0.183646C144.111 0.238477 144.237 0.3197 144.344 0.422524C144.45 0.525348 144.534 0.64769 144.591 0.782331C144.647 0.916973 144.675 1.06119 144.673 1.20647C144.716 2.32257 144.72 18.3489 144.72 18.3489C144.72 18.3489 144.348 19.4233 146.002 19.3687C147.656 19.3142 164.11 19.3687 164.11 19.3687C164.11 19.3687 165.251 19.3127 165.307 20.6346C165.363 21.9565 165.307 24.7966 165.307 24.7966C165.296 24.9589 165.252 25.1175 165.177 25.2634C165.103 25.4092 164.999 25.5395 164.872 25.6466C164.746 25.7538 164.598 25.8357 164.439 25.8878C164.279 25.9398 164.11 25.9609 163.942 25.9499C162.623 25.9702 145.691 25.9256 145.691 25.9256C145.691 25.9256 143.009 25.9551 140.983 24.4967C138.958 23.0383 137.647 21.3 137.675 18.4618C137.703 15.6236 137.653 1.25515 137.653 1.25515V1.2522Z" fill="white"/>
</svg>
