<svg width="25" height="24" viewBox="0 0 25 24" fill="none" xmlns="http://www.w3.org/2000/svg">
<path fill-rule="evenodd" clip-rule="evenodd" d="M12.5 8.25C10.4289 8.25 8.75 9.92893 8.75 12C8.75 14.0711 10.4289 15.75 12.5 15.75C14.5711 15.75 16.25 14.0711 16.25 12C16.25 9.92893 14.5711 8.25 12.5 8.25ZM7.25 12C7.25 9.10051 9.60051 6.75 12.5 6.75C15.3995 6.75 17.75 9.10051 17.75 12C17.75 14.8995 15.3995 17.25 12.5 17.25C9.60051 17.25 7.25 14.8995 7.25 12Z" fill="#D2232A"/>
<path fill-rule="evenodd" clip-rule="evenodd" d="M9.28923 1.99574C9.49522 1.92925 9.71989 1.95499 9.9055 2.06636L12.0978 3.38175C12.3666 3.36975 12.6357 3.36975 12.9044 3.38178L15.0876 2.07528C15.2717 1.96513 15.4941 1.93907 15.6987 2.00369C17.1314 2.45634 18.4486 3.21495 19.5592 4.22701C19.7184 4.37209 19.8075 4.57862 19.8039 4.79397L19.761 7.34232C19.909 7.56966 20.0449 7.80472 20.168 8.0465L22.3903 9.2821C22.5775 9.38614 22.7112 9.56521 22.7579 9.77417C23.0848 11.2386 23.0883 12.7568 22.768 14.2227C22.7219 14.4335 22.5873 14.6142 22.3986 14.7187L20.1676 15.9543C20.0447 16.1959 19.9089 16.4307 19.761 16.6579L19.8039 19.2062C19.8075 19.4216 19.7184 19.6281 19.5592 19.7732C18.451 20.7831 17.1393 21.5439 15.7125 22.0045C15.5065 22.071 15.2819 22.0452 15.0963 21.9338L12.9039 20.6184C12.6352 20.6305 12.3661 20.6304 12.0974 20.6184L9.91413 21.9249C9.73006 22.0351 9.50762 22.0611 9.30306 21.9965C7.87035 21.5439 6.55312 20.7853 5.44258 19.7732C5.28337 19.6281 5.19423 19.4216 5.19786 19.2062L5.24081 16.6636C5.09364 16.4339 4.95794 16.1971 4.83421 15.9539L2.61143 14.7181C2.4243 14.6141 2.29056 14.435 2.2439 14.226C1.91694 12.7616 1.91349 11.2434 2.23379 9.7775C2.27984 9.56675 2.41442 9.38603 2.60313 9.28151L4.83411 8.04588C4.9571 7.80432 5.09285 7.56947 5.24076 7.34232L5.19786 4.79397C5.19424 4.57861 5.28338 4.37207 5.4426 4.22699C6.5508 3.21714 7.86242 2.45633 9.28923 1.99574ZM6.70349 5.11573L6.74453 7.5531C6.74718 7.71101 6.69993 7.86572 6.60949 7.99519C6.40833 8.2832 6.23221 8.58792 6.08307 8.90599C6.01602 9.04899 5.90554 9.16717 5.76738 9.24369L3.63414 10.4252C3.44754 11.4669 3.45013 12.5339 3.64179 13.5747L5.76845 14.7571C5.90557 14.8333 6.01533 14.9506 6.08228 15.0925C6.23469 15.4155 6.41246 15.7259 6.61391 16.0208C6.70151 16.149 6.74715 16.3013 6.74452 16.4565L6.70351 18.8844C7.51417 19.5692 8.4412 20.103 9.44043 20.4603L11.5251 19.2128C11.6572 19.1338 11.8103 19.0973 11.9638 19.1083C12.3214 19.1338 12.6804 19.1338 13.038 19.1083C13.1918 19.0973 13.3452 19.1339 13.4774 19.2132L15.5688 20.4681C16.5648 20.1051 17.4888 19.569 18.2983 18.8845L18.2572 16.4471C18.2546 16.2892 18.3018 16.1345 18.3923 16.005C18.5934 15.717 18.7696 15.4123 18.9187 15.0942C18.9857 14.9512 19.0962 14.833 19.2344 14.7565L21.3676 13.575C21.5542 12.5333 21.5516 11.4663 21.36 10.4255L19.2333 9.2431C19.0956 9.16656 18.9856 9.04861 18.9187 8.90599C18.7696 8.58792 18.5934 8.2832 18.3923 7.99519C18.3018 7.86572 18.2546 7.71101 18.2572 7.5531L18.2983 5.11583C17.4876 4.431 16.5606 3.89721 15.5613 3.53988L13.4766 4.78742C13.3446 4.86643 13.1915 4.90292 13.038 4.89194C12.6804 4.86636 12.3214 4.86636 11.9638 4.89194C11.81 4.90294 11.6566 4.86628 11.5244 4.78697L9.43297 3.53212C8.437 3.89511 7.51294 4.43124 6.70349 5.11573Z" fill="#D2232A"/>
</svg>
