<svg width="28" height="28" viewBox="0 0 28 28" fill="none" xmlns="http://www.w3.org/2000/svg">
<path fill-rule="evenodd" clip-rule="evenodd" d="M14.0016 9.87498C11.7234 9.87498 9.87656 11.7218 9.87656 14C9.87656 16.2782 11.7234 18.125 14.0016 18.125C16.2797 18.125 18.1266 16.2782 18.1266 14C18.1266 11.7218 16.2797 9.87498 14.0016 9.87498ZM8.22656 14C8.22656 10.8105 10.8121 8.22498 14.0016 8.22498C17.191 8.22498 19.7766 10.8105 19.7766 14C19.7766 17.1894 17.191 19.775 14.0016 19.775C10.8121 19.775 8.22656 17.1894 8.22656 14Z" fill="#E0E4EB"/>
<path fill-rule="evenodd" clip-rule="evenodd" d="M10.4678 2.99519C10.6944 2.92204 10.9415 2.95036 11.1457 3.07286L13.5572 4.5198C13.8528 4.50659 14.1489 4.5066 14.4445 4.51983L16.846 3.08268C17.0485 2.96151 17.2932 2.93285 17.5182 3.00393C19.0942 3.50184 20.5431 4.33632 21.7647 5.44958C21.9398 5.60917 22.0379 5.83635 22.0339 6.07324L21.9867 8.87642C22.1496 9.1265 22.299 9.38507 22.4344 9.65102L24.879 11.0102C25.0848 11.1246 25.2319 11.3216 25.2833 11.5515C25.6429 13.1624 25.6467 14.8323 25.2944 16.4448C25.2437 16.6767 25.0957 16.8755 24.8881 16.9904L22.434 18.3496C22.2987 18.6153 22.1494 18.8737 21.9867 19.1235L22.0339 21.9267C22.0379 22.1636 21.9398 22.3908 21.7647 22.5504C20.5457 23.6612 19.1029 24.4981 17.5334 25.0048C17.3068 25.0779 17.0597 25.0496 16.8555 24.9271L14.4439 23.4802C14.1483 23.4934 13.8523 23.4934 13.5567 23.4801L11.1552 24.9173C10.9527 25.0385 10.708 25.0671 10.483 24.996C8.90699 24.4981 7.45804 23.6636 6.23644 22.5504C6.06131 22.3908 5.96326 22.1636 5.96726 21.9267L6.0145 19.1298C5.85261 18.8772 5.70334 18.6166 5.56724 18.3492L3.12219 16.9898C2.91634 16.8753 2.76923 16.6784 2.7179 16.4485C2.35824 14.8376 2.35444 13.1676 2.70678 11.5551C2.75744 11.3233 2.90547 11.1245 3.11305 11.0095L5.56714 9.65035C5.70242 9.38463 5.85174 9.12629 6.01445 8.87642L5.96726 6.07324C5.96327 5.83634 6.06133 5.60915 6.23647 5.44956C7.45549 4.33872 8.89828 3.50183 10.4678 2.99519ZM7.62345 6.42717L7.66859 9.10828C7.67151 9.28198 7.61953 9.45217 7.52005 9.59458C7.29877 9.91139 7.10504 10.2466 6.94098 10.5965C6.86723 10.7538 6.74571 10.8838 6.59373 10.9679L4.24716 12.2676C4.04191 13.4135 4.04476 14.5871 4.25558 15.7321L6.59491 17.0327C6.74574 17.1165 6.86647 17.2456 6.94012 17.4017C7.10777 17.7569 7.30331 18.0984 7.52492 18.4227C7.62127 18.5638 7.67147 18.7313 7.66859 18.902L7.62347 21.5727C8.5152 22.326 9.53493 22.9132 10.6341 23.3062L12.9273 21.9339C13.0725 21.847 13.2409 21.8069 13.4098 21.819C13.8031 21.8471 14.198 21.8471 14.5914 21.819C14.7606 21.8069 14.9293 21.8472 15.0747 21.9344L17.3753 23.3148C18.4709 22.9155 19.4873 22.3257 20.3777 21.5728L20.3326 18.8917C20.3296 18.718 20.3816 18.5478 20.4811 18.4054C20.7024 18.0886 20.8961 17.7534 21.0602 17.4035C21.1339 17.2462 21.2555 17.1162 21.4074 17.032L23.754 15.7324C23.9593 14.5865 23.9564 13.4129 23.7456 12.2679L21.4063 10.9673C21.2548 10.8831 21.1337 10.7533 21.0602 10.5965C20.8961 10.2466 20.7024 9.91139 20.4811 9.59458C20.3816 9.45217 20.3296 9.28198 20.3326 9.10828L20.3777 6.42728C19.486 5.67398 18.4662 5.0868 17.3671 4.69374L15.0739 6.06603C14.9287 6.15294 14.7602 6.19308 14.5914 6.181C14.198 6.15287 13.8031 6.15287 13.4098 6.181C13.2406 6.1931 13.0718 6.15279 12.9264 6.06554L10.6259 4.6852C9.53031 5.0845 8.51385 5.67423 7.62345 6.42717Z" fill="#E0E4EB"/>
</svg>
