<svg width="38" height="224" viewBox="0 0 38 224" fill="none" xmlns="http://www.w3.org/2000/svg">
<path d="M32.3333 3C32.3333 4.47276 33.5272 5.66667 35 5.66667C36.4728 5.66667 37.6667 4.47276 37.6667 3C37.6667 1.52724 36.4728 0.333333 35 0.333333C33.5272 0.333333 32.3333 1.52724 32.3333 3ZM1 3V2.5H0.5V3H1ZM1 221H0.5V221.5H1V221ZM6.95895 221C6.95895 222.473 8.15286 223.667 9.62562 223.667C11.0984 223.667 12.2923 222.473 12.2923 221C12.2923 219.527 11.0984 218.333 9.62562 218.333C8.15286 218.333 6.95895 219.527 6.95895 221ZM35 2.5H1V3.5H35V2.5ZM0.5 3V221H1.5V3H0.5ZM1 221.5H9.62562V220.5H1V221.5Z" fill="#D2232A"/>
</svg>
