<svg width="25" height="24" viewBox="0 0 25 24" fill="none" xmlns="http://www.w3.org/2000/svg">
<path fill-rule="evenodd" clip-rule="evenodd" d="M16.4291 3.82983C15.7481 3.70516 15.0453 3.71594 14.3615 3.86605C13.2938 4.10047 12.326 4.66293 11.5939 5.47467C10.8617 6.28641 10.4016 7.3068 10.2782 8.39299C10.1547 9.47918 10.3741 10.5768 10.9054 11.5321C11.0782 11.8428 11.0092 12.2322 10.74 12.4645L4.66922 17.704C4.39805 17.9843 4.24609 18.3592 4.24609 18.7498C4.24609 19.1487 4.40454 19.5312 4.68658 19.8132C4.96861 20.0953 5.35114 20.2537 5.75 20.2537C6.1406 20.2537 6.51553 20.1018 6.79577 19.8306L11.726 14.1182C11.9261 13.8863 12.2 13.7306 12.5015 13.6771V13.6771C12.803 13.6236 13.1113 13.6814 13.3913 13.8055C14.2407 14.1821 15.1779 14.3272 16.1068 14.2216C17.193 14.0982 18.2134 13.6381 19.0251 12.9059C19.8369 12.1737 20.3993 11.206 20.6337 10.1383C20.7839 9.45454 20.7946 8.7517 20.67 8.07072L17.6247 11.1232C17.4471 11.3013 17.1922 11.3784 16.9457 11.3288L14.2925 10.7944C13.9964 10.7348 13.765 10.5034 13.7054 10.2073L13.171 7.55414C13.1214 7.30765 13.1985 7.05267 13.3765 6.87509L16.4291 3.82983ZM12.7909 15.1801L7.91152 20.8336C7.89954 20.8475 7.88705 20.8609 7.87408 20.8739C7.31074 21.4372 6.54668 21.7537 5.75 21.7537C4.95331 21.7537 4.18926 21.4372 3.62592 20.8739C3.06258 20.3105 2.74609 19.5465 2.74609 18.7498C2.74609 17.9531 3.06258 17.1891 3.62592 16.6257C3.63889 16.6128 3.65233 16.6003 3.66621 16.5883L9.31966 11.7089C8.83778 10.6183 8.65232 9.41561 8.78779 8.22361C8.94656 6.82653 9.53825 5.51407 10.48 4.46999C11.4218 3.4259 12.6665 2.70246 14.0399 2.40095C15.4132 2.09943 16.8465 2.23494 18.139 2.78849C18.368 2.88655 18.5333 3.09186 18.5803 3.33644C18.6273 3.58103 18.5498 3.83299 18.3734 4.00889L14.721 7.65266L15.0774 9.42238L16.8471 9.77882L20.4909 6.12635C20.6668 5.95003 20.9188 5.87253 21.1634 5.91952C21.4079 5.9665 21.6133 6.13184 21.7113 6.36078C22.2649 7.65331 22.4004 9.08658 22.0989 10.4599C21.7973 11.8333 21.0739 13.078 20.0298 14.0198C18.9857 14.9615 17.6733 15.5532 16.2762 15.712C15.0842 15.8475 13.8815 15.662 12.7909 15.1801Z" fill="#D2232A"/>
</svg>
